<?xml version="1.0" encoding="utf-8"?>
<!-- Generator: Adobe Illustrator 27.5.0, SVG Export Plug-In . SVG Version: 6.00 Build 0)  -->
<svg version="1.1" id="Capa_1" xmlns="http://www.w3.org/2000/svg" xmlns:xlink="http://www.w3.org/1999/xlink" x="0px" y="0px"
	 viewBox="0 0 2122 2122" style="enable-background:new 0 0 2122 2122;" xml:space="preserve">
<path style="fill:#202043;" d="M1697.16,1901.156c-113.413-83.567-218.042-178.666-312.598-282.975
	c-11.221-36.094-19.946-73.091-26.163-110.614c37.627-69.151,92.192-130.138,157.628-175.953c9.604-2.139,19.775-2.432,29.228-1.404
	c6.477,0.704,12.991,2.205,19.484,1.091c6.494-1.113,13.133-5.844,13.637-12.227c0.594-7.517-7.35-12.83-14.919-14.014
	c-6.755-1.058-15.159-0.858-18.378-6.663c-1.203-2.173-1.34-4.818-0.867-7.303c1.754-9.223,10.672-15.381,18.01-21.639
	c7.337-6.258,14.192-16.044,10.192-24.346c-4.465-9.272-19.062-8.485-27.902-2.302c-10.239,7.16-16.1,18.672-22.202,29.391
	c-9.879,17.351-20.052,37.014-32.465,53.747c-54.507,41-100.956,92.26-136.09,149.857c-2.594-20.446-4.46-41.009-5.567-61.639
	c0.187-25.068,0.338-69.56,0.572-101.123c1.278-19.67,3.229-39.307,5.881-58.859c7.904-20.999,23.377-39.851,40.34-53.953
	c8.127-6.758,17.218-12.656,23.242-21.479c6.024-8.821,7.995-21.893,1.125-29.678c-8.09-9.172-23.24-5.901-33.155,1.583
	c-8.848,6.68-18.09,16.702-28.485,13.905c-3.888-1.047-7.128-3.873-9.491-7.225c-8.77-12.441-5.893-29.778-4.914-45.386
	c0.982-15.608-2.694-34.631-16.877-39.33c-15.844-5.25-31.386,12.648-34.148,29.922c-3.199,20.007,3.61,39.817,9.22,59.016
	c11.659,39.9,27.357,84.682,29.154,126.587c0.004,0.079,0.009,0.171,0.012,0.25c-2.451,26.604-3.681,53.298-3.681,79.963
	c0,72.87,9.134,145.51,27.119,215.499c-51.87-59.699-100.502-122.233-145.68-187.19c-19.741-71.098-30.128-147.272-30.127-223.315
	c0-0.621,0.024-1.242,0.024-1.863c0.917-20.76,2.024-46.577,3.007-68.382c1.957-22.788,4.902-45.405,8.823-67.729
	c8.725-19.738,24.659-37.116,41.855-49.947c8.341-6.224,17.608-11.577,23.934-19.888c6.326-8.312,8.775-20.906,2.229-28.731
	c-7.71-9.218-22.911-6.657-33.057,0.2c-9.058,6.119-18.629,15.464-28.87,12.333c-3.832-1.171-6.947-4.041-9.176-7.388
	c-8.263-12.417-4.753-29.111-3.194-44.205c1.559-15.094-1.389-33.685-15.33-38.813c-15.571-5.73-31.708,10.998-35.103,27.637
	c-3.932,19.269,2.104,38.753,6.972,57.593c10.115,39.157,24.066,83.208,24.29,123.912c0.004,0.776,0.017,1.643,0.025,2.466
	c-4.234,33.97-6.383,68.374-6.384,102.805c0.002,59.404,6.192,118.829,18.103,176.048
	c-55.092-83.717-104.556-171.157-147.882-261.521c23.416-73.402,37.82-150.004,43.016-227.458
	c29.372-24.894,57.042-51.943,82.893-80.752c0.328,0.013,0.648,0.061,0.982,0.041l0-0.001
	c82.016-4.847,163.636-27.574,237.405-66.066c23.419-5.208,49.17-6.168,72.219-7.987c13.505-1.067,27.688-1.52,39.588-8.358
	c10.275-5.905,17.871-20.053,10.735-28.823c-6.39-7.851-19.32-5.601-28.967-1.225c-9.647,4.375-19.934,10.368-29.922,7.805
	c-2.692-0.689-5.262-2.06-6.857-4.27c-4.273-5.91-0.149-14.173,1.951-21.383c2.353-8.078,0.782-18.458-6.974-21.377
	c-6.583-2.475-14.385,1.915-18.522,7.854c-4.138,5.937-5.685,13.113-8.009,19.885c-3.681,10.726-9.309,21.562-16.781,30.567
	c-70.255,39.899-148.905,64.594-228.324,72.008c41.901-49.879,78.406-104.613,108.314-162.917c0.055-0.079,0.119-0.17,0.174-0.248
	c23.978-34.411,61.237-63.8,92.47-91.232c15.028-13.199,31.396-26.273,39.42-44.879c6.928-16.063,3.401-39.503-12.787-43.564
	c-14.492-3.638-27.793,10.453-35.332,24.153c-7.539,13.7-14.404,29.878-28.477,35.681c-3.793,1.564-8.042,2.212-11.883,1.011
	c-10.275-3.211-12.704-16.626-16.594-27.006c-4.359-11.635-15.394-22.516-27.14-19.111c-9.973,2.892-15.315,14.979-14.96,25.659
	c0.356,10.677,4.87,20.528,8.107,30.589c6.72,20.871,9.687,44.917,5.22,66.774c-8.342,18.167-17.28,36.047-26.877,53.559
	c-16.516,26.435-39.728,63.269-53.037,84.572c-36.877,51.84-79.398,99.391-126.525,141.266c0.482-12.512,0.725-25.039,0.725-37.57
	c0-24.385-0.972-48.786-2.808-73.135c0.236-3.61,0.437-6.99,0.589-10c2.37-47.072,20.478-97.322,33.98-142.105
	c6.497-21.545,14.353-43.773,10.899-66.268c-2.982-19.418-20.405-39.591-38.356-33.759c-16.068,5.223-20.378,26.58-19.396,44.119
	c0.982,17.54,4.095,37.031-5.919,50.972c-2.699,3.759-6.382,6.919-10.787,8.078c-11.771,3.101-22.137-8.198-32.083-15.739
	c-11.148-8.448-28.243-12.185-37.464-1.915c-7.827,8.719-5.705,23.411,1.033,33.35c6.738,9.937,16.967,16.602,26.098,24.226
	c20.662,17.253,39.312,40.77,47.185,66.8c1.668,13.632,3.039,27.294,4.111,40.978c0.151,41.73-0.302,131.046-0.081,150.399
	c-5.143,64.494-16.846,128.28-34.91,189.923c-40.948-88.417-76.051-179.508-104.895-272.517
	c-3.674-13.451-7.732-26.992-12.162-40.584c-18.096-62.661-33.347-126.132-45.628-190.187c0.032-0.002,0.057-0.018,0.089-0.02
	c0.225-12.923-7.026-36.938-7.191-45.53c-1.018-52.935,15.347-110.657,26.979-161.895c5.598-24.65,12.668-50.175,7.041-75.11
	c-4.86-21.528-25.958-42.772-45.618-34.836c-17.598,7.109-20.757,31.376-18.287,50.955c2.468,19.578,7.479,41.176-2.655,57.583
	c-2.731,4.419-6.612,8.251-11.454,9.893c-12.95,4.395-25.447-7.459-37.184-15.133c-13.15-8.597-32.601-11.449-42.129,0.78
	c-8.09,10.382-4.568,26.682,3.761,37.291c8.327,10.609,20.309,17.279,31.135,25.111c31.939,23.099,60.955,58.365,64.443,98.073
	c0.235,2.674,2.174,9.991,4.671,19.19c5.265,30.395,11.186,60.669,17.765,90.798c-30.419-62.199-67.145-122.55-108.046-176.989
	c-2.336-4.196-4.493-7.987-6.419-11.297c-23.705-40.738-35.956-92.729-49.084-137.62c-6.315-21.601-11.864-44.517-27.033-61.479
	c-13.099-14.643-38.706-22.039-50.565-7.354c-10.614,13.145-2.568,33.394,7.827,47.554c10.395,14.163,23.639,28.794,22.857,45.944
	c-0.209,4.621-1.571,9.281-4.628,12.656c-8.173,9.023-23.023,5.211-35.474,4.322c-13.951-0.996-30.317,5.203-32.439,18.84
	c-1.798,11.578,7.995,22.733,19.067,27.381c11.069,4.65,23.276,4.653,35.089,6.059c26.461,3.149,54.628,12.504,75.373,29.681
	c10.04,12.053,19.881,24.506,29.494,37.307c22.659,34.619,64.071,98.86,77.084,118.578c33.696,60.051,61.797,123.154,81.987,184.964
	c3.913,13.553,7.966,27.065,12.14,40.54c0.1,0.369,0.211,0.741,0.311,1.11c0.05,0.184,0.14,0.343,0.2,0.521
	c10.3,33.153,21.359,66.071,33.218,98.703c-56.437-33.533-109.494-73.271-158.052-118.169
	c-14.207-15.664-73.592-79.291-101.406-109.607c-8.56-10.852-16.874-21.898-24.954-33.121c-11.83-24.439-14.078-54.311-10.618-80.96
	c1.53-11.795,4.519-23.632,2.726-35.505c-1.796-11.871-10.21-24.1-21.876-25.194c-13.742-1.286-23.764,13.062-26.214,26.833
	c-2.188,12.287-2.134,27.622-12.884,33.335c-4.02,2.136-8.87,2.314-13.403,1.386c-16.816-3.444-27.759-19.871-38.94-33.418
	c-11.184-13.549-28.843-26.312-44.19-19.24c-17.14,7.898-16.246,34.536-5.257,50.824c12.728,18.865,33.586,29.858,52.979,41.274
	c40.309,23.725,87.71,48.343,121.398,81.306c2.206,2.158,4.705,4.56,7.402,7.119c38.318,48.276,81.181,92.792,127.714,132.823
	c-7.705-0.309-15.421-0.471-23.144-0.471C690.16,813.5,623.071,825.02,559.61,847.453c-23.941,1.878-49.603-0.796-72.706-2.238
	c-13.52-0.843-27.627-2.388-40.37,2.711c-11.001,4.402-20.512,17.34-14.68,27.026c5.223,8.672,18.341,8.263,28.506,5.286
	c10.168-2.974,21.194-7.462,30.723-3.523c2.568,1.062,4.919,2.78,6.19,5.194c3.398,6.451-1.846,14.054-4.941,20.896
	c-3.466,7.666-3.367,18.166,3.9,22.144c6.168,3.377,14.512,0.127,19.442-5.169c4.931-5.298,7.474-12.185,10.726-18.563
	c5.149-10.097,12.238-20.029,20.896-27.892c66.799-26.333,138.477-39.874,209.532-39.871c15.18,0,30.331,0.617,45.399,1.856
	c1.064,0.088,2.087-0.041,3.075-0.272c40.792,32.75,84.076,62.196,129.427,87.695c0.541,0.304,1.102,0.535,1.669,0.729
	c46.855,123.497,104.767,242.838,172.661,356.196c-65.115-61.168-139.036-113.519-218.929-154.842
	c-3.032-2.155-5.87-4.146-8.413-5.896c-38.828-26.719-72.105-68.497-103.143-103.489c-14.933-16.836-29.734-35.189-50.694-44.049
	c-18.097-7.652-44.411-3.406-48.865,14.936c-3.985,16.419,11.934,31.293,27.381,39.661c15.447,8.368,33.671,15.946,40.285,31.786
	c1.783,4.268,2.54,9.065,1.218,13.42c-3.537,11.647-18.594,14.543-30.234,19.055c-13.04,5.054-25.191,17.649-21.286,30.887
	c3.316,11.237,16.936,17.142,28.931,16.619c11.998-0.521,23.035-5.732,34.319-9.503c25.484-8.522,55.229-12.064,81.484-5.158
	c12.574,5.772,25.018,11.808,37.318,18.124c35.099,21.461,108.933,67.48,127.049,78.414c11.08,8.095,21.995,16.4,32.702,24.955
	c-105.584,6.054-210.814,32.073-308.213,76.286c-0.089,0.026-0.193,0.056-0.281,0.083c-40.175,12.054-87.629,11.92-129.147,13.998
	c-19.973,0.999-40.923,1.067-58.772,10.655c-15.413,8.278-27.218,28.833-17.062,42.075c9.093,11.856,28.27,9.087,42.692,3.038
	c14.421-6.046,29.854-14.453,44.485-10.251c3.944,1.133,7.676,3.264,9.939,6.594c6.054,8.901-0.38,20.921-3.786,31.469
	c-3.817,11.822-1.937,27.206,9.384,31.839c9.608,3.934,21.308-2.215,27.666-10.802c6.355-8.587,8.945-19.109,12.66-29.004
	c7.71-20.526,20.332-41.208,37.419-55.556c17.825-9.045,35.938-17.496,54.34-25.249c29.372-10.445,70.458-24.876,94.124-33.29
	c67.771-19.618,137.706-30.841,207.505-32.965c35.942,30.605,69.483,63.824,100.219,99.294
	c9.759,14.787,19.698,29.454,29.805,44.005c0.119,0.167,0.22,0.348,0.35,0.506c53.081,76.382,110.911,149.439,173.118,218.542
	c-103.364-46.332-215.061-75.848-328.957-86.896c-10.368-1.626-19.23-3.025-26.345-4.515
	c-49.949-10.463-100.597-38.185-146.185-60.09c-21.934-10.538-44.367-22.638-69.02-22.765c-21.284-0.107-45.852,15.004-42.69,35.064
	c2.831,17.959,24.941,26.139,43.871,28.056c18.93,1.917,40.314,1.897,53.51,14.894c3.557,3.501,6.307,7.949,6.794,12.823
	c1.296,13.033-12.568,22.141-22.339,31.442c-10.95,10.419-17.878,27.956-8.47,39.488c7.986,9.788,24.063,10.014,35.851,4.529
	c11.786-5.483,20.668-15.228,30.39-23.644c27.057-23.428,63.405-36.651,99.699-38.732c142.1,7.821,282.146,45.008,407.458,108.306
	c0.698,0.353,1.42,0.593,2.15,0.77c87.271,92.378,182.557,177.161,284.974,252.646c4.436,3.269,10.682,2.323,13.952-2.112
	C1702.542,1910.672,1701.596,1904.425,1697.16,1901.156z"/>
</svg>
